<?xml version="1.0" encoding="utf-8"?><!-- Uploaded to: SVG Repo, www.svgrepo.com, Generator: SVG Repo Mixer Tools -->
<svg width="800px" height="800px" viewBox="0 -0.5 25 25" fill="none" xmlns="http://www.w3.org/2000/svg">
<path fill-rule="evenodd" clip-rule="evenodd" d="M14.5 11.5C14.5 12.6046 13.6046 13.5 12.5 13.5C11.3954 13.5 10.5 12.6046 10.5 11.5C10.5 10.3954 11.3954 9.5 12.5 9.5C13.6046 9.5 14.5 10.3954 14.5 11.5Z" stroke="#000000" stroke-width="1.5" stroke-linecap="round" stroke-linejoin="round"/>
<path d="M14.5 5.25C14.0858 5.25 13.75 5.58579 13.75 6C13.75 6.41421 14.0858 6.75 14.5 6.75V5.25ZM10.5 6.75C10.9142 6.75 11.25 6.41421 11.25 6C11.25 5.58579 10.9142 5.25 10.5 5.25V6.75ZM15.25 6C15.25 5.58579 14.9142 5.25 14.5 5.25C14.0858 5.25 13.75 5.58579 13.75 6H15.25ZM13.75 7C13.75 7.41421 14.0858 7.75 14.5 7.75C14.9142 7.75 15.25 7.41421 15.25 7H13.75ZM13.75 6C13.75 6.41421 14.0858 6.75 14.5 6.75C14.9142 6.75 15.25 6.41421 15.25 6H13.75ZM15.25 4C15.25 3.58579 14.9142 3.25 14.5 3.25C14.0858 3.25 13.75 3.58579 13.75 4H15.25ZM14.5 6.75C14.9142 6.75 15.25 6.41421 15.25 6C15.25 5.58579 14.9142 5.25 14.5 5.25V6.75ZM10.5 5.25C10.0858 5.25 9.75 5.58579 9.75 6C9.75 6.41421 10.0858 6.75 10.5 6.75V5.25ZM11.25 6C11.25 5.58579 10.9142 5.25 10.5 5.25C10.0858 5.25 9.75 5.58579 9.75 6H11.25ZM9.75 7C9.75 7.41421 10.0858 7.75 10.5 7.75C10.9142 7.75 11.25 7.41421 11.25 7H9.75ZM9.75 6C9.75 6.41421 10.0858 6.75 10.5 6.75C10.9142 6.75 11.25 6.41421 11.25 6H9.75ZM11.25 4C11.25 3.58579 10.9142 3.25 10.5 3.25C10.0858 3.25 9.75 3.58579 9.75 4H11.25ZM6.05108 17.8992C5.71926 18.1471 5.65126 18.6171 5.89919 18.9489C6.14713 19.2807 6.61711 19.3487 6.94892 19.1008L6.05108 17.8992ZM18.0511 19.1008C18.3829 19.3487 18.8529 19.2807 19.1008 18.9489C19.3487 18.6171 19.2807 18.1471 18.9489 17.8992L18.0511 19.1008ZM14.5 6.75H15.5V5.25H14.5V6.75ZM15.5 6.75C17.2949 6.75 18.75 8.20507 18.75 10H20.25C20.25 7.37665 18.1234 5.25 15.5 5.25V6.75ZM18.75 10V16H20.25V10H18.75ZM18.75 16C18.75 17.7949 17.2949 19.25 15.5 19.25V20.75C18.1234 20.75 20.25 18.6234 20.25 16H18.75ZM15.5 19.25H9.5V20.75H15.5V19.25ZM9.5 19.25C7.70507 19.25 6.25 17.7949 6.25 16H4.75C4.75 18.6234 6.87665 20.75 9.5 20.75V19.25ZM6.25 16V10H4.75V16H6.25ZM6.25 10C6.25 8.20507 7.70507 6.75 9.5 6.75V5.25C6.87665 5.25 4.75 7.37665 4.75 10H6.25ZM9.5 6.75H10.5V5.25H9.5V6.75ZM13.75 6V7H15.25V6H13.75ZM15.25 6V4H13.75V6H15.25ZM14.5 5.25H10.5V6.75H14.5V5.25ZM9.75 6V7H11.25V6H9.75ZM11.25 6V4H9.75V6H11.25ZM6.94892 19.1008C10.2409 16.641 14.7591 16.641 18.0511 19.1008L18.9489 17.8992C15.1245 15.0416 9.87551 15.0416 6.05108 17.8992L6.94892 19.1008Z" fill="#000000"/>
</svg>