<svg xmlns="http://www.w3.org/2000/svg" width="240" height="324" fill="none" id="girl-using-smartphone"><path fill="#fff" fill-rule="evenodd" d="M188.18 197.386c-.664-1.823.305-3.642.843-5.406 1.91-6.116 3.996-12.233 6.946-17.937 1.118-1.909-.721-4.249-2.852-3.711-3.647.511-7.408.104-11.062-.122-1.336-3.458-4.903-4.893-7.71-6.885-3.185-1.988-6.283-4.273-9.596-6.016-.184-1.648-2.181-2.056-3.402-.878-3.354-2.087-7.376-1.699-10.971-3.067-2.732-4.417-2.937-9.062-3.66-13.323-.316-1.858.019-3.65-1.25-5.306-4.262-5.997-21.103-8.598-27.313-5.044-3.342-2.085-3.423 1.692-3.953 4.023-.591 1.166-.91 2.487-.811 3.878-3.59 7.502-11.804 10.893-19.16 13.641-.923-.889-2.242-.776-3.12-.041-6.376 1.386-12.564 3.824-17.907 7.63-6.069 1.776-10.343 6.714-13.434 12.009-.34.558-.421 1.127-.322 1.65-9.504 13.938-14.04 30.624-14.678 47.476-6.112 3.67 2.905 36.636 5.005 43.48l.006-.003c1.362 2.412 2.908 9.295 6.316 8.762 2.338 2.645 6.064 2.125 9.236 2.328-.516 1.983-.262 4.252.353 6.211.727 2.332 4.297 2.411 4.803-.132 31.594 6.141 64.01 1.242 95.959 2.163 9.238.066 18.474.352 27.69 1.01 1.297.093 2.613-1.234 2.524-2.526-1.981-21.087-3.841-48.827-6.057-69.707-.525-4.762-.941-9.576-2.423-14.157Z" clip-rule="evenodd"></path><path fill="#000" fill-rule="evenodd" d="M114.72 130.992c.091-.247.46-.214.467.063.146 5.929-1.33 13.175-6.072 17.179-2.435 2.056-5.653 2.997-8.609 4.078l-.333.123-5.223 1.946c-1.385.517-2.879 1.311-4.102.581.99 2.456 1.821 4.98 3.027 7.347 1.5 2.946 3.315 5.642 5.536 8.094 8.798 9.713 22.723 12.676 35.219 9.83 6.434-1.466 12.696-4.243 17.086-9.309 3.336-3.851 5.253-9.019 5.705-14.117a1.11 1.11 0 0 1-.413-.011c-1.581-.345-3.177-1.193-4.568-2.025l-.134-.08c-1.339-.806-2.734-1.73-3.695-2.982-.954-1.244-1.955-5.301-1.955-5.301-.273-1.525-.529-4.563-.485-6.104.004-.146.649-.232.718-.081.596 1.309.789 4.184 1.249 5.546l.092.272c.492 1.422.913 3.154 1.931 4.303 1.913 2.159 4.798 3.073 7.373 4.156.185-2.44 4.08-2.383 4.031.162-.003.138-.009.275-.014.413.308.169.603.362.879.548l.27.183c1.02.694 2.048 1.354 3.134 1.943 2.102 1.14 4.329 2.044 6.483 3.079a33.037 33.037 0 0 1 6.122 3.788 31.546 31.546 0 0 1 2.564 2.242l.22.217c.774.771 1.781 1.633 2.222 2.646.097.224.584.743.848.761 4.094.268 8.178.647 12.246 1.216 1.053.147 1.47.69 1.08 1.568-1.337 3.018-6.574 15.069-7.967 18.303.163 2.376-.057 5.174.09 7.55.214 3.468.495 6.935.831 10.394 1.205 12.372 3.03 24.683 4.68 37.001.825 6.165 1.578 12.338 2.321 18.513a226.708 226.708 0 0 1 1.215 13.299l.07 1.159c.098 1.459.321 2.853-.582 4.105-.409.568-1.344.888-1.882.243-.676-.811-.928-1.418-.992-2.483-.05-.816-.062-1.636-.099-2.452-.08-1.771-.181-3.54-.299-5.309a494.034 494.034 0 0 0-.818-10.598c-1.093-12.375-3.172-24.657-4.555-37.002a269.256 269.256 0 0 1-1.455-18.716c-.131-3.125-.179-6.25-.148-9.378.012-1.168.067-2.331.147-3.491a341.944 341.944 0 0 1-6.528 13.974l-.54 1.09c-1.443 2.908-2.925 5.828-4.659 8.57l-.299.467c-.702 1.114-1.662 2.87-2.944 3.222-.893.245-1.983.072-2.899.055-.908-.018-1.817-.021-2.725-.058a13.275 13.275 0 0 1-2.973-.441 3.207 3.207 0 0 1-.459-.152c-.991 1.623-2.676 2.859-4.398 3.579-1.379.576-2.825.972-4.273 1.338l-.511.128c-1.552.387-3.328.571-4.204 2.071l-.203.347c-.651 1.107-1.275 2.078-2.353 2.871-1.159.854-2.533 1.391-3.902 1.809-1.401.428-2.835.756-4.258 1.107l-.388.096c-.939.235-1.887.451-2.821.707a19.23 19.23 0 0 0-1.194.356c-.458.157-.79.403-1.151.67-.325 1.134-1.712 1.75-2.852 1.671a3.572 3.572 0 0 1-1.625-.543c-.854.727-1.793 1.378-2.663 2.051a390.702 390.702 0 0 1-11.341 8.453 296.924 296.924 0 0 1-14.022 9.43 374.45 374.45 0 0 1-6.001 3.739l.215.079.427.162c1.01.377 2.135.986 2.33 2.165.156.934-.366 1.578-1.288 1.692-1.097.136-1.95-.639-2.633-1.379-.3-.326-.638-.629-.927-.965a2.077 2.077 0 0 1-.287-.461 128.315 128.315 0 0 1-6.049 3.37l-.511.263c-5.07 2.594-10.005 5.435-15.118 7.955-1.333.657-2.96 1.368-4.654 1.853.45 1.744.442 3.659.454 5.429.01 1.725-2.73 1.717-2.672 0l.028-.829c.05-1.394.131-2.841.462-4.198-4.994.829-9.983-.972-10.912-1.513-1.025-.596-1.956-1.55-2.73-2.436-1.658-1.895-2.808-4.167-3.828-6.452-2.186-4.894-3.735-10.125-4.867-15.357-4.174-19.289-2.379-39.934 4.4-58.424a111.216 111.216 0 0 1 5.984-13.493l.285-.538c2.286-4.306 4.827-8.596 8.055-12.261 3.362-3.816 7.51-6.785 12.025-9.089a64.28 64.28 0 0 1 6.789-2.962c.372-.139.747-.264 1.123-.382 2.415-1.541 5.346-3.014 8.278-2.956a.7.7 0 0 1 .481.193c.142.025.283.055.424.096.313.091.643.433.598.785l-.015.117a.934.934 0 0 1-.037.166c.105.016.208.041.309.075 2.805-.792 5.565-2.004 8.303-2.982l.623-.22c2.293-.804 4.646-1.592 6.526-3.183 1.872-1.582 3.279-3.632 4.296-5.848 1.253-2.73 1.814-5.688 2.843-8.491Zm56.168 143.997c.555-.413 1.212.067 1.42.578.682 1.68.345 4.289-.617 5.774-.996 1.538-3.382.931-3.44-.933-.06-1.942 1.069-4.251 2.637-5.419Zm5.737-46.367c.05-.218.389-.216.44 0 .462 1.97.452 4.092.587 6.112l.016.224c.163 2.228.3 4.462.397 6.694a890.077 890.077 0 0 0 1.087 19.695c.456-.254.926-.478 1.413-.675.729-.294 1.439-.328 2.223-.32.954.01 1.672.849 1.546 1.785-.138 1.018-1.034 1.454-1.965 1.309-1.031-.161-2.066-.411-3.107-.515.116 1.681.235 3.363.362 5.043.169 2.224.388 4.446.543 6.671.014.212.03.425.046.638.621-.323 1.28-.488 2.027-.692l.195-.054c1.084-.312 2.245-.743 3.249-.013.674.49.809 1.298.25 1.945-.847.981-2.102.791-3.272.741l-.63-.023c-.594-.023-1.141-.061-1.69-.211.101 1.449.154 2.905-.024 4.333-.096.772-1.112.975-1.381.187-.703-2.058-.848-4.278-1.105-6.434-.24-2.014-.386-4.042-.543-6.065l-.048-.606c-.353-4.45-.636-8.902-.843-13.361a377.79 377.79 0 0 1-.38-13.378c-.023-2.026.011-4.06.09-6.086l.025-.608c.091-2.083.028-4.294.492-6.336ZM83.79 275.318c.027-.285.255-.639.594-.594.312.04.634.021.943.072.408.068.737.309 1.116.461.617.247 1.289.374 1.922.576 1.187.379 1.834 1.629 1.342 2.796-.517 1.228-1.816 1.506-2.938.991-.885-.406-1.545-1.055-2.14-1.805l-.168-.215c-.257-.322-.548-.682-.655-1.073-.105-.381-.053-.822-.016-1.209Zm57.675-5.77c1.479-.208 2.742.297 4.11.774l.111.039c1.392.481 3.424.813 4.138 2.239.43.86.096 2.002-.917 2.256-1.605.403-3.044-.771-4.371-1.561l-.07-.041c-1.28-.75-2.602-1.381-3.42-2.676-.218-.345-.029-.967.419-1.03ZM89.848 151.912c-.592.133-1.184.25-1.776.363-2.251 1.207-4.436 2.459-6.76 3.535-2.466 1.141-4.923 2.319-7.266 3.7-4.732 2.788-8.633 6.414-11.856 10.859-5.568 7.677-9.71 16.531-12.675 25.514a107.216 107.216 0 0 0-2.046 6.996c1.066-.987 2.328-1.593 3.744-2.112.6-.22 1.346.152 1.65.672.137.233.214.464.2.737-.032.604-.425 1.291-1.073 1.41-1.512.279-2.983.822-4.44 1.299a.68.68 0 0 1-.563-.04 104.574 104.574 0 0 0-2.674 18.69 99.673 99.673 0 0 0 .487 16.028c.453-.204.897-.396 1.394-.511.645-.151 1.28-.333 1.909-.539 1.816-.596 2.644 2.402.788 2.859-.69.17-1.386.312-2.09.415-.613.09-1.155.05-1.733-.044a100.443 100.443 0 0 0 1.813 9.869l.17.711c.998 4.152 2.162 8.342 3.845 12.265.825 1.925 1.918 3.752 3.267 5.357.663.789 1.4 1.465 2.202 2.106.667.534 2.938 1.691 5.628 1.691 2.689 0 3.417-.255 4.774-.722 2.683-.924 5.23-2.399 7.747-3.713l.26-.135c1.113-.576 2.222-1.16 3.327-1.75-.14-1.127.105-2.074.692-3.116.635-1.126 2.208-.565 2.325.587l.004.044c.018.26.061.525.115.789 7.393-4.051 14.629-8.386 21.75-12.903a425.788 425.788 0 0 0 13.596-8.991 308.938 308.938 0 0 0 10.078-7.247c.474-.355.939-.728 1.414-1.085a28.584 28.584 0 0 1-.337-.432c-1.775-2.325-2.926-5.096-3.5-7.955-.347-1.725-.514-3.516-.565-5.274l-.022-.765c-.035-1.289-.045-2.637.193-3.886-.323.178-.653.352-.982.538-1.181.669-2.362 1.337-3.545 2.001a282.778 282.778 0 0 1-7.153 3.905c-4.299 2.254-8.64 4.397-13.099 6.318l-2.169.935c-3.765 1.62-7.56 3.211-11.475 4.415a97.674 97.674 0 0 1-6.672 1.778l.905 1.061c.614.72.625 1.752-.16 2.358-.771.596-1.806.348-2.32-.443l-.938-1.442a2.593 2.593 0 0 1-.378-.901 211.25 211.25 0 0 1-3.103.624l-1.96.374c-2.8.541-5.515 1.611-8.018 2.981-.87.476-1.112-.449-.19-1.093 2.695-1.885 5.839-2.952 9.083-3.847l.159-.044c1.19-.326 2.378-.666 3.564-1.018a5.02 5.02 0 0 1-.191-1.501c.033-1.202.14-2.409.203-3.61.134-2.522.305-5.036.505-7.553.077-.97.164-1.942.262-2.914-.635-.341-1.184-.793-1.892-1.016l-.12-.035c-.758-.204-.502-1.181.171-1.265a5.421 5.421 0 0 1 1.818.088c.093.021.181.043.266.069.11-.9.233-1.798.372-2.69.368-2.359.629-4.843 1.395-7.109.057-.168.306-.228.398-.052 1.115 2.122 1.154 4.725 1.28 7.088l.015.283c.148 2.578.157 5.181.11 7.762-.05 2.661-.14 5.315-.26 7.973-.048 1.07-.046 2.18-.229 3.204 6.636-2.158 13.154-4.741 19.402-7.799a376.592 376.592 0 0 0 13.096-6.729c2.164-1.166 4.338-2.314 6.5-3.484.758-.411 1.515-.822 2.271-1.235l1.135-.619c1.062-.579 1.948-1.156 3.185-1.197a1.21 1.21 0 0 1 .934.422c.664-.471 1.433-.761 2.239-.754a150.884 150.884 0 0 1 3.727-4.967l.946-1.204c1.638-2.079 3.373-4.188 5.462-5.77.933-.706 1.958-1.235 3.028-1.673a1.601 1.601 0 0 1-.718-.389c-1.021-.947-1.162-2.707-1.37-4.029-.215-1.371-.132-2.598.081-3.965.083-.531.962-.642 1.177-.154.452 1.029.931 2.014 1.342 3.054l.122.314c.442 1.171 1.383 2.403 1.32 3.673a1.618 1.618 0 0 1-.313.895c.898-.298 1.808-.564 2.705-.841 2.822-.872 5.654-1.72 8.531-2.397.765-.18 1.535-.347 2.307-.501.405-1.922.995-3.809 1.69-5.662-.658-.337-1.084-.903-1.652-1.406-.53-.472-.895-1.045-1.348-1.587-.412-.492-.18-1.381.56-1.352l.21.008c.768.036 1.511.116 2.207.474l.248.128c.34.176.712.379 1.043.618.433-.998.884-1.986 1.339-2.963l.591-1.265c1.533-3.291 3.061-6.707 4.984-9.772.855-1.362 1.993-2.213 3.627-2.345 1.682-.135 3.431.04 5.115.1 1.953.07 3.905.153 5.856.255-.5-.524-.956-1.107-1.459-1.61a30.09 30.09 0 0 0-2.64-2.355c-1.832-1.445-3.847-2.637-5.939-3.663-2.093-1.026-4.248-1.921-6.213-3.188-1.243-.802-2.354-1.812-3.368-2.904-.638 6.888-3.963 13.287-8.958 18.095-5.188 4.993-12.357 7.737-19.37 8.903-7.154 1.191-14.62.754-21.463-1.734a37.738 37.738 0 0 1-9.93-5.413c-.033.2-.073.397-.152.583-.105.25-.234.463-.381.682l-.263.385a9.206 9.206 0 0 1-.524.706c-.456.543-1.102.781-1.798.779-1.333-.005-2.342-1.312-1.984-2.605.226-.813.708-1.302 1.461-1.62.238-.101.48-.185.725-.268l.183-.062c.246-.084.49-.165.745-.211a33.256 33.256 0 0 1-3.943-4.115c-3.724-4.644-7.397-11.147-6.152-17.314.022-.106.117-.173.22-.189.072-.433.302-.852.618-1.133a5.492 5.492 0 0 0-.642-.129Zm38.671 106.625c.737-.41 1.499.565.9 1.167l-.895.896c-.831.835-1.639 1.678-2.35 2.63l-.172.232c-.96 1.306-1.983 2.82-3.555 3.308-1.902.59-3.73-1.727-2.629-3.42.962-1.48 2.815-2.038 4.412-2.65 1.511-.578 2.876-1.377 4.289-2.163Zm-61.353-6.827c.434-.568 1.563-.269 1.267.534-.961 2.608-1.353 6.164-3.781 7.896-.784.559-2.014.302-2.66-.343-.732-.733-.762-1.766-.342-2.66.51-1.091 1.768-1.882 2.65-2.713l.079-.076c.948-.921 1.973-1.572 2.787-2.638Zm101.49 3.001c.774-.333 2.79-.982 3.387-.214a.42.42 0 0 1 .071.092c.146.255.168.614 0 .867-.696 1.047-1.421 1.828-2.411 2.573l-.111.082c-1.077.793-2.09 1.723-3.402 2.081-1.82.495-3.091-1.784-1.813-3.115 1.03-1.072 2.601-1.629 3.965-2.227l.314-.139Zm-73.074-14.9c-.304-.55.318-1.225.881-.881 1.607.982 3.479 1.719 5.283 2.249.731.214 1.389.955 1.335 1.754l-.008.121c-.022.282-.061.562-.24.797-.629.822-1.528 1.139-2.488.652-2.14-1.084-3.605-2.599-4.763-4.692Zm46.96-1.667c-.039-.231.13-.41.366-.365 1.357.257 2.611.913 3.777 1.668.626.404 1.229.848 1.853 1.257.771.504 1.059.921 1.173 1.846.075.611-.495 1.169-1.018 1.338-1.425.46-3.058-1.049-4.023-2.029l-.044-.044c-1.01-1.031-1.844-2.249-2.084-3.671Zm40.782-1.601c-.31-.836.757-1.529 1.454-1.118.657.386 1.37.707 1.989 1.15.57.407 1.089.89 1.635 1.331l.27.214c1.001.805 2.654 2.797 1.222 3.952-1.362 1.1-3.169-.304-4.084-1.331l-.064-.073c-.526-.608-1.175-1.269-1.556-1.979-.36-.669-.604-1.436-.866-2.146Zm-13.439-64.725c-1.707.331-2.403 2.439-3.122 3.813-1.696 3.242-3.256 6.543-4.823 9.849-.482 1.017-.952 2.042-1.425 3.064-.029.08-.067.159-.11.237-.971 2.091-1.971 4.168-3.139 6.153 1.069-.2 2.144-.371 3.223-.506-.054-1.016.641-2.376.985-3.232l.029-.072c.429-1.096.879-2.823 1.983-3.392.368-.19.762.048.79.453.084 1.207-1.096 2.588-1.673 3.612-.349.62-.689 1.242-1.02 1.872-.124.235-.228.467-.355.674.556-.06 1.113-.114 1.672-.153l.364-.025c2.071-.136 4.27-.175 6.141.846 1.736.948 2.624 2.97 1.67 4.812-1.188 2.295-3.804 2.599-6.105 2.785-2.874.232-5.754.651-8.607 1.059-2.952.422-5.731 1.511-8.639 2.07-.27.052-.438-.302-.19-.453 2.293-1.396 5.081-2.165 7.645-2.948l.208-.063c1.39-.427 2.75-.916 4.189-1.158a66.283 66.283 0 0 1 4.21-.571l.137-.013c1.551-.13 5.508-.085 5.341-2.383-.111-1.52-2.581-1.783-3.709-1.801-5.171-.083-10.378 1.29-15.292 2.761l-1.097.329c-2.013.606-4.027 1.229-6.002 1.939-2.237.805-4 2.059-5.629 3.776-1.807 1.903-3.557 3.85-5.431 5.689a214.371 214.371 0 0 1-3.585 3.429 3.715 3.715 0 0 0-.642 1.235c-.255.841-.196 1.624-.1 2.488.243 2.183.297 4.389.601 6.565.282 2.016.677 4.106 1.514 5.976.331.741.762 1.468 1.254 2.119l.396.515c.173.224.366.469.569.7.298-.364.729-.6 1.23-.541 1.064.125 1.901.095 2.945-.149.809-.19 1.611-.411 2.415-.616 1.58-.404 3.175-.771 4.739-1.234l.269-.081c1.166-.357 2.332-.805 3.302-1.558 1.127-.875 1.474-2.137 2.309-3.228 1.782-2.33 5.634-2.281 8.243-2.92 2.216-.542 4.35-1.398 5.884-3.007l.089-.095c-.068-.288.042-.612.309-.76l.058-.033a.64.64 0 0 1 .326-.08c.142-.209.28-.425.404-.655.103-.189.36-.05.326.137-.02.112-.048.221-.074.331 1.486-.383 3.118-.31 4.626-.309l1.958-.007c.339-.004.844-.021.889-.041l.046-.021c.122-.053-.051.035.034-.078.094-.125.186-.252.277-.379.325-.454.632-.922.932-1.394-3.278.835-6.675 1.355-10.022 1.789-3.592.465-7.231.788-10.854.791-.999.002-.99-1.507 0-1.545 3.837-.146 7.654-.35 11.465-.842a98.302 98.302 0 0 0 8.14-1.406l.562-.122c.353-.078 1.349-.191 1.835-.517l.286-.492c-.047-.576-1.51-.499-1.854-.499-.972-.002-1.946.006-2.919.008-1.946.006-3.891-.011-5.838-.027-3.888-.031-7.791-.167-11.676-.001-.943.04-1.438-1.473-.506-1.871 4.115-1.758 8.683-2.139 13.077-2.68 2.311-.284 4.622-.612 6.881-1.187l.559-.142c1.419-.364 2.986-.807 4.181-1.675-1.796-.726-4.029-.643-5.89-.746l-.143-.008a129.436 129.436 0 0 0-7.83-.246c-5.344-.008-10.689.182-16.027.435-.134.006-.162-.205-.032-.233 5.487-1.198 11.063-1.775 16.678-1.864 2.614-.041 5.23-.004 7.843.111l.959.045c2.227.096 4.699.122 6.563 1.467.284.205.434.467.457.744 2.5-4.984 4.808-10.072 7.126-15.127 1.802-3.93 3.537-7.894 5.404-11.793l.605-1.262c.809-1.683 1.639-3.367 2.56-4.989-3.444-.461-6.907-.78-10.372-1.025-3.158-.223-13.46-.718-14.98-.423Zm-1.525 54.02c.392-.218.994-.04 1.091.444.072.361.195.761.195 1.13 0 .443-.158.923-.242 1.355-.194.995-.433 1.803-.938 2.689-.317.555-.955.931-1.597.916-.508-.011-.959-.148-1.308-.541-.417-.472-.704-1.165-.475-1.8.6-1.664 1.704-3.321 3.274-4.193Zm-83.302-1.659c.919-1.611 3.097-3.05 4.998-2.907 2.854.214 3.437 4.058.673 4.976-1.652.548-3.924-.015-5.37-.917a.859.859 0 0 1-.301-1.152Zm-29.337-5.502c-.209-.303.136-.65.447-.582.69.152 1.434.218 2.11.424.691.21 1.361.56 2.046.8 1.436.503 2.97.755 4.36 1.363.555.243.992 1.047.94 1.641l-.013.138c-.03.295-.082.552-.246.821-.442.722-1.319 1.095-2.145.873-1.535-.412-3.033-1.471-4.341-2.351l-.242-.161c-.572-.376-1.186-.77-1.647-1.255-.48-.506-.875-1.137-1.269-1.711Zm52.732-5.856c-.177-.636.615-1.057 1.076-.627.921.859 1.885 1.656 2.787 2.536l.061.06c.646.65 1.587 1.902.746 2.743-1.077 1.077-2.577-.521-3.155-1.354-.732-1.057-1.172-2.122-1.515-3.358Zm70.522-5.26c-1.367 1.449-3.473 2.115-5.328 2.667-2.199.653-4.464 1.044-6.732 1.365-2.192.31-4.366.588-6.523.944 1.631.02 3.263.032 4.89.062 1.877.034 3.753.074 5.63.129 1.366.039 2.97-.148 4.269.36.234.091.452.218.643.372a161.655 161.655 0 0 0 3.151-5.899ZM94.65 194.015c1.426-.453 2.768-1.055 4.28-.899.403.041.69.433.471.82-.716 1.262-1.882 1.974-3.03 2.818l-.1.075a37.044 37.044 0 0 1-3.971 2.553c-2.352 1.32-4.46-2.458-2.084-3.567 1.429-.667 2.93-1.322 4.434-1.8Zm25.69-3.28c2.183.143 4.365.241 6.55.329 2.532.103 1.681 4-.434 3.212-2.09-.78-4.179-1.549-6.287-2.276-.642-.222-.591-1.276.13-1.267l.041.002Zm-55.992-6.934c.566-.04 1.137.084 1.703.139l.603.058c1.243.124 2.408.276 3.594.782 2.187.934 1.012 4.451-1.184 4.371-1.622-.06-3.01-.757-4.38-1.569-1.198-.709-1.932-1.597-2.741-2.711-.268-.369.105-.783.47-.82.643-.065 1.292-.205 1.935-.25Zm109.631-7.183a14.32 14.32 0 0 1-2.614 6.22c-.68.927-1.875.962-2.549 0-.954-1.36-.366-2.918.353-4.224l.212-.383c.322-.573.816-1.41 1.381-1.988l.009-.059c.303-2.365 3.58-1.893 3.208.434ZM85.683 162.12c.544-.49 1.546-.343 1.723.455.247 1.118.397 2.377.235 3.512-.087.614-.12 1.305-.362 1.878-.26.616-.76 1.09-1.23 1.553-.94.925-2.923.619-3.174-.838l-.032-.179c-.127-.689-.29-1.426-.102-2.11.142-.516.459-1.041.72-1.52l.055-.102c.525-.976 1.342-1.907 2.167-2.649Zm76.498 2.378.197.002c1.519.03 4.296.4 4.311 2.278.003.442-.324.901-.764 1.003-.908.21-1.495-.326-2.142-.869a6.591 6.591 0 0 0-1.787-1.052c-.692-.275-.647-1.363.185-1.362Z" clip-rule="evenodd"></path><path fill="#fff" fill-rule="evenodd" d="M166.991 109.396c-1.325-9.563-4.355-18.847-4.79-28.552l-.776-12.46c-.098-2.595-3.467-3.47-4.754-1.172-2.924-3.244-8.161-2.767-12.156-2.668-23.52.834-45.871 16.742-53.945 38.923-.194.529-.135 1.092.084 1.595-3.763 12.555 9.546 20.638 18.623 26.236 3.682 3.893 8.01 7.127 12.897 9.342a45.248 45.248 0 0 0 18.092 4.262c1.363.031 2.182-1.072 2.281-2.213 1.982-.462 5.373.071 6.421-1.96 11.95-5.193 19.737-18.354 18.023-31.333Z" clip-rule="evenodd"></path><path fill="#000" fill-rule="evenodd" d="M161.399 75.485c-.034-.31.414-.32.506-.069.757 2.065 1.542 4.115 2.142 6.231.579 2.04.995 4.126 1.417 6.203.7 3.447 1.302 6.92 1.799 10.403 1.064-.83 2.455-.906 3.765-.26.615.304.851 1.106.703 1.728-.118.499-.263.996-.437 1.482.372.329.687.734.916 1.2.603 1.226.409 2.512-.132 3.682.041.069.082.14.12.214.783 1.521.364 2.884-.208 4.369-.428 1.11-.189 2.361-1.113 3.2a8.507 8.507 0 0 1-1.506 2.86 1.882 1.882 0 0 1-.681.7 31.58 31.58 0 0 1-.567 4.864c-1.256 6.251-5.242 11.821-10.176 15.75-4.829 3.844-10.5 6.141-16.619 6.884-2.972.361-5.947.247-8.894-.268l-.367-.065c-2.72-.494-6.01-1.311-7.891-3.363-.988-1.079-.41-3.454 1.338-3.23.926.119 1.732.267 2.604.609.68.267 1.362.524 2.06.742 1.337.416 2.72.741 4.109.921 2.893.374 5.899.275 8.759-.29 5.2-1.026 10.252-3.393 14.199-6.957 4.587-4.143 7.276-9.506 7.671-15.69.441-6.888-.354-13.941-1.014-20.793a209.883 209.883 0 0 0-1.304-10.664c-.512-3.462-.82-6.918-1.199-10.393Zm-40.596-22.242.222-.034c8.831-1.344 18.122-1.249 26.423 2.397 1.591.7 3.148 1.542 4.614 2.521 1.05-.11 2.107-.199 3.144-.213 1.305-.017 2.579.661 2.74 1.982 1.223.152 2.35.602 3.07 1.503a2.9 2.9 0 0 1 .564 1.18c.752.177 1.489.45 2.189.809.849.437 1.339 1.654 1.039 2.555a6.51 6.51 0 0 1-.236.598l-.068.146.04.055c.678 1.09.207 2.521-.833 3.172-.779.488-1.65.877-2.545 1.065.074.36.141.721.196 1.087.021.148-.169.253-.253.107 0 0 .321 1 .805 2.101.19.433-.419.818-.651.38-.617-1.166-.999-2.362-1.559-3.565a4.354 4.354 0 0 1-1.53-.378 1.7 1.7 0 0 1-.75-.695c-.01.012-.017.027-.027.042-1.667 2.145-4.925 2.897-7.443 3.576-2.704.73-5.472 1.18-8.25 1.511-4.851.577-9.74.685-14.613.909l-.968.046c-1.979 1.738-4.529 2.817-7.145 3.146a12.993 12.993 0 0 1-4.379-.215 4.44 4.44 0 0 1-1.959 1.165c-.134 2.769-1.677 5.39-4.01 6.918l.042.164c.579 2.365.572 4.949-1.506 6.592a5.075 5.075 0 0 1-.912.57l.071.164c1.073 2.51 1.416 5.282-.602 7.364-.818.844-2.254.644-2.868-.324l-.03-.049c-.034-.058-.071-.113-.106-.17a.517.517 0 0 1-.262.259c-.767.33-1.074.087-1.773-.253a10.906 10.906 0 0 0-2.026-.738 11.682 11.682 0 0 0-1.705-.315c-3.604 1.378-5.932 5.605-5.379 9.572.3 2.16 1.486 4.299 3.552 5.195.904.393 1.966.558 2.945.425 1.324-.18 2.343-1.014 3.714-.537.541.188.879.613.908 1.194.049.913-.274 1.598-.82 2.105.962.803 1.737 1.919 2.572 2.809 1.043 1.114 2.102 2.228 3.23 3.255a28.702 28.702 0 0 0 3.397 2.682l.126.083c1.504.98 3.398 1.849 3.47 3.897.023.617-.351 1.183-.858 1.498-1.895 1.175-3.957-.368-5.442-1.498a33.785 33.785 0 0 1-1.739-1.414 2.481 2.481 0 0 1-1.206-.22 8.477 8.477 0 0 1-.801-.406c-.851.214-1.654.026-2.315-.42-.953.234-1.963.262-2.82.074a4.733 4.733 0 0 1-2.06-1.04c-1.205.384-2.542.313-3.73-.417-.712-.437-1.267-1.061-1.57-1.79a1.61 1.61 0 0 1-.259-.831v-.118c-1.035.024-2.073-.332-2.873-1.151a3.979 3.979 0 0 1-1.135-2.645 5.198 5.198 0 0 1-2.719-1.838c-1.2-1.552-1.36-3.469-.743-5.181a3.218 3.218 0 0 1-.108-.276c-.957-1.351-1.59-2.98-1.538-4.614.006-.254.04-.503.09-.75-.942-.501-1.635-1.381-1.709-2.499a3.313 3.313 0 0 1 .826-2.384 4.17 4.17 0 0 1-.314-2.098 4.084 4.084 0 0 1 .727-1.913 2.94 2.94 0 0 1 .033-.592c-.038-.196-.07-.4-.086-.606-.18-2.266 1.383-4.249 3.287-5.295.5-.275 1.041-.499 1.582-.689.393-.14.985-.186 1.331-.441-.015-.011.13-.197.154-.296.028-.123.058-.243.073-.368.056-.524.014-1.063.004-1.59-.047-2.388.027-4.787.278-7.162.467-4.405 1.619-8.714 3.862-12.563 1.883-3.225 4.46-5.95 7.416-8.209 5.887-4.498 13.234-6.944 20.497-8.073ZM93.52 108.018c-.767-1.842 2.841-1.86 3.795-1.773l.028.003c2.147.214 5.504 1.247 6.383 3.414.363.897-.713 1.87-1.575 1.575-.843-.289-1.315-.909-1.992-1.452a8.796 8.796 0 0 0-.551-.403c.1.316.258.608.478.826l.052.049c1.039.934-.819 2.401-1.508 1.165a3.28 3.28 0 0 1-.4-2.127c.034-.221.093-.422.18-.615-.07-.034-.137-.071-.206-.104l-.124-.058c-.827-.375-4.355-1.849-4.327-.531.003.146-.186.146-.233.031Z" clip-rule="evenodd"></path><path fill="#000" fill-rule="evenodd" d="M143.152 128.274a8.601 8.601 0 0 1-3.614-2.781 1.671 1.671 0 0 1-.338-1.297c.076-.467.352-.889.728-1.173.377-.284.849-.424 1.305-.353.397.062.791.279 1.104.73l.065.09a5.695 5.695 0 0 0 2.086 1.751 4.7 4.7 0 0 0 2.582.454c1.738-.196 2.935-1.136 4.208-2.413.158-.161.316-.327.474-.496a.746.746 0 0 1 .394-.303.864.864 0 0 1 .97.332c.097.143.153.32.135.524-.117 1.323-.808 2.503-1.79 3.43-1.091 1.03-2.537 1.742-3.898 1.992-1.499.275-3.027.078-4.411-.487Zm5.119-20.408c1.595.971 4.026 3.233 2.31 5.638-2.021 2.12-4.929-.311-6.362-1.411-1.329-.852-2.823 1.34-1.59 2.335 10.358 7.671 14.561-6.308 6.449-7.702-.894-.154-1.225.84-.807 1.14Zm-18.56-8.923c.176-2.189 3.508-2.686 3.84-.52.296 1.94-.053 3.723-.927 5.47-.834 1.668-2.932.89-3.091-.63-.213-2.037.068-2.958.178-4.32Zm25.365-.969c.465-.609 1.136-1.024 1.939-.79 2.511.735 1.771 4.301.889 6.037-.479.942-2.028 1.181-2.728.351-1.14-1.353-1.687-4.056-.236-5.39.039-.068.083-.138.136-.208Zm-22.487-8.608.397-.07c1.227-.212 2.752-.416 3.62.57.461.524.619 1.497 0 1.998-1.088.88-2.292.54-3.596.614a14.3 14.3 0 0 0-3.143.536c-2.272.65-4.123 1.835-6.063 3.137-.254.17-.514-.155-.393-.393 1.12-2.195 3.29-3.997 5.464-5.096 1.161-.587 2.43-1.073 3.714-1.296Zm20.198-.983.304.062c3.304.69 7.596 2.07 9.16 5.317.06.459-.003.557-.054.621l-.017.022c-.043.055-.076.13-.275.193a8.562 8.562 0 0 1-.168-.042c-.717-.188-1.284-.447-1.833-.716l-.596-.293c-.691-.34-1.388-.666-2.127-.907a25.038 25.038 0 0 0-4.844-1.07 1.988 1.988 0 0 1-.972-.37 1.464 1.464 0 0 1-.544-.827c-.116-.467-.082-.82.168-1.242.188-.316.458-.535.767-.661a1.798 1.798 0 0 1 1.031-.087Z" clip-rule="evenodd"></path><path fill="#000" fill-rule="evenodd" d="M167.178 109.153c-2.565 2.652-6.847 3.412-10.259 1.99-8.763-3.662-4.474-15.085 2.284-18.153.844-.21 1.972-.71 3-.823.093-.046.295.086.54-.039 7.452.832 9.149 12.404 4.435 17.025m-28.263.679c-2.877 3.817-8.225 4.995-12.595 3.22-8.633-3.401-5.571-13.53.336-17.502 12.476-4.69 17.629 7.244 12.259 14.282m-18.714-8.458-.024-.009.137-.061-.046.115c-.022-.015-.042-.033-.067-.045m52.916-4.126c-.704.001-1.722.117-2.305.606-1.438-4.851-6.745-9.34-11.361-6.067-3.635 1.17-6.332 3.763-7.865 7.21-2.764-1.644-7.11-.942-9.507 1.233-1.57-5.188-5.433-7.005-10.031-7.274-5.019-.822-10.021 4.054-11.582 7.966-1.298-.148-3.237-.561-4.458.24-7.924-2.079-21.778-3.225-23.389-2.07-1.148.44-1.778 3.152-.174 3.298 1.397-.199-.164-1.986 1.245-2.182 7.505-.465 14.79 1.047 22.216 1.682.663.892 2.805 1.19 3.948.832-1.8 6.635 2.085 11.15 7.906 12.502 9.015 2.071 16.857-5.996 14.5-14.386 2.731-1.36 5.872-1.3 8.846-.585-4.971 18.301 24.492 17.48 19.891-1.772 3.062 1.524 3.727-.926 2.12-1.233" clip-rule="evenodd"></path></svg>