<?xml version="1.0" encoding="iso-8859-1"?>
<!-- Uploaded to: SVG Repo, www.svgrepo.com, Generator: SVG Repo Mixer Tools -->
<svg height="800px" width="800px" version="1.1" id="Layer_1" xmlns="http://www.w3.org/2000/svg" xmlns:xlink="http://www.w3.org/1999/xlink" 
	 viewBox="0 0 512 512" xml:space="preserve">
<path style="fill:#FFD6A0;" d="M477.867,119.467C477.867,53.487,424.38,0,358.4,0l0,0c-65.98,0-119.467,53.487-119.467,119.467
	v273.067C238.933,458.513,292.42,512,358.4,512l0,0c65.98,0,119.467-53.487,119.467-119.467V119.467z"/>
<path style="fill:#FFC170;" d="M358.4,512c0-91.592,0-256,0-256s0-164.408,0-256c65.98,0,119.467,53.487,119.467,119.467V256
	v136.533C477.867,458.513,424.38,512,358.4,512z"/>
<path style="fill:#D80027;" d="M477.867,256v136.533C477.867,458.513,424.38,512,358.4,512s-119.467-53.487-119.467-119.467V256
	H477.867z"/>
<path style="fill:#A2001D;" d="M358.4,512c0-91.592,0-256,0-256h119.467v136.533C477.867,458.513,424.38,512,358.4,512z"/>
<circle style="fill:#C9E3F7;" cx="162.133" cy="384" r="128"/>
<path style="fill:#AED5F3;" d="M162.133,256c70.692,0,128,57.306,128,128c0,70.692-57.308,128-128,128"/>
</svg>